<svg xmlns="http://www.w3.org/2000/svg" width="14" height="17" viewBox="0 0 14 17">
  <defs>
    <style>
      .cls-1 {
        fill: #a7a7a7;
        fill-rule: evenodd;
      }
    </style>
  </defs>
  <path id="Delete_1" data-name="Delete 1" class="cls-1" d="M3061,512.638a0.875,0.875,0,0,1,.87-0.879h4.38v-0.88a0.877,0.877,0,0,1,.88-0.879h1.74a0.877,0.877,0,0,1,.88.879v0.88h4.37a0.877,0.877,0,0,1,.88.879v0.879h-14v-0.879h0Zm13.12,2.638V526.12a0.875,0.875,0,0,1-.87.88h-10.5a0.884,0.884,0,0,1-.88-0.88V514.4h12.25v0.88h0Zm-8.75,1.759a0.87,0.87,0,1,0-1.74,0v7.327a0.87,0.87,0,1,0,1.74,0v-7.327h0Zm3.5,0a0.87,0.87,0,1,0-1.74,0v7.327a0.87,0.87,0,1,0,1.74,0v-7.327h0Zm3.5,0a0.87,0.87,0,1,0-1.74,0v7.327a0.87,0.87,0,1,0,1.74,0v-7.327h0Z" transform="translate(-3061 -510)"/>
</svg>
