<svg xmlns="http://www.w3.org/2000/svg" width="15" height="15" viewBox="0 0 15 15">
  <defs>
    <style>
      .cls-1 {
        fill: #a7a7a7;
        fill-rule: evenodd;
      }
    </style>
  </defs>
  <path id="Shape_1553_1" data-name="Shape 1553 1" class="cls-1" d="M3042.86,516.313l-3.18-3.181,1.44-1.463c0.01-.007.01-0.013,0.02-0.02a2.248,2.248,0,0,1,3.18.02c0.01,0.008.02,0.014,0.03,0.021a2.258,2.258,0,0,1-.05,3.183Zm-7.38,7.383a1.029,1.029,0,0,1-.2.143l-4.21,2.085a0.734,0.734,0,0,1-.67-0.012,0.743,0.743,0,0,1-.31-1.015l2.08-4.209a0.812,0.812,0,0,1,.15-0.195l6.29-6.3,3.16,3.2Zm2.02,0.8h6.75a0.75,0.75,0,0,1,0,1.5h-6.75A0.75,0.75,0,1,1,3037.5,524.5Z" transform="translate(-3030 -511)"/>
</svg>
