<svg xmlns="http://www.w3.org/2000/svg" width="15.22" height="3.25" viewBox="0 0 15.22 3.25">
  <defs>
    <style>
      .cls-1 {
        fill: #3d3d3d;
        fill-rule: evenodd;
      }
    </style>
  </defs>
  <path id="_..." data-name="..." class="cls-1" d="M2952.8,521.118a1.531,1.531,0,0,0,.36-1.059v-0.327a1.537,1.537,0,1,0-3.07,0v0.327A1.64,1.64,0,0,0,2952.8,521.118Zm6.07,0a1.537,1.537,0,0,0,.37-1.059v-0.327a1.537,1.537,0,0,0-.37-1.059,1.541,1.541,0,0,0-2.71,1.059v0.327A1.64,1.64,0,0,0,2958.87,521.118Zm6.07,0a1.491,1.491,0,0,0,.37-1.059v-0.327a1.64,1.64,0,0,0-2.71-1.059,1.537,1.537,0,0,0-.37,1.059v0.327a1.537,1.537,0,0,0,.37,1.059A1.9,1.9,0,0,0,2964.94,521.118Z" transform="translate(-2950.09 -518.281)"/>
</svg>
